<svg width="424" height="112" viewBox="0 0 424 112" fill="none" xmlns="http://www.w3.org/2000/svg">
<rect x="1" y="1" width="422" height="110" rx="19" fill="black"/>
<rect x="1" y="1" width="422" height="110" rx="19" stroke="#6D6D6D" stroke-width="2"/>
<g clip-path="url(#clip0_1_658)">
<path d="M24 26H52.5714V54.5714H24V26Z" fill="#F35325"/>
<path d="M55.4285 26H83.9999V54.5714H55.4285V26Z" fill="#81BC06"/>
<path d="M24 57.4287H52.5714V86.0001H24V57.4287Z" fill="#05A6F0"/>
<path d="M55.4285 57.4287H83.9999V86.0001H55.4285V57.4287Z" fill="#FFBA08"/>
</g>
<path d="M109.042 28.464H116.72C116.749 28.6547 116.779 28.86 116.808 29.08C116.837 29.2853 116.852 29.5053 116.852 29.74C116.852 30.6787 116.705 31.61 116.412 32.534C116.119 33.458 115.62 34.2793 114.916 34.998C114.197 35.746 113.354 36.3253 112.386 36.736C111.418 37.1467 110.311 37.352 109.064 37.352C107.935 37.352 106.864 37.1467 105.852 36.736C104.855 36.3253 103.982 35.7533 103.234 35.02C102.486 34.2867 101.892 33.4213 101.452 32.424C101.027 31.412 100.814 30.312 100.814 29.124C100.814 27.936 101.027 26.8433 101.452 25.846C101.892 24.834 102.486 23.9613 103.234 23.228C103.982 22.4947 104.855 21.9227 105.852 21.512C106.864 21.1013 107.935 20.896 109.064 20.896C110.267 20.896 111.374 21.1087 112.386 21.534C113.413 21.9593 114.271 22.5533 114.96 23.316L113.222 25.054C112.709 24.482 112.1 24.042 111.396 23.734C110.707 23.426 109.922 23.272 109.042 23.272C108.294 23.272 107.575 23.4113 106.886 23.69C106.197 23.9687 105.588 24.3647 105.06 24.878C104.532 25.3767 104.114 25.9853 103.806 26.704C103.498 27.4227 103.344 28.2293 103.344 29.124C103.344 30.0187 103.498 30.8253 103.806 31.544C104.114 32.2627 104.532 32.8787 105.06 33.392C105.588 33.8907 106.197 34.2793 106.886 34.558C107.575 34.8367 108.301 34.976 109.064 34.976C110.076 34.976 110.89 34.822 111.506 34.514C112.137 34.206 112.665 33.8467 113.09 33.436C113.398 33.1427 113.669 32.7613 113.904 32.292C114.139 31.808 114.293 31.28 114.366 30.708H109.042V28.464ZM128.837 34.426C128.383 35.262 127.737 35.9587 126.901 36.516C126.065 37.0733 125.039 37.352 123.821 37.352C123.015 37.352 122.267 37.2127 121.577 36.934C120.903 36.6407 120.316 36.2373 119.817 35.724C119.319 35.2107 118.93 34.6093 118.651 33.92C118.373 33.216 118.233 32.446 118.233 31.61C118.233 30.8327 118.365 30.0993 118.629 29.41C118.893 28.706 119.26 28.0973 119.729 27.584C120.213 27.056 120.793 26.638 121.467 26.33C122.142 26.022 122.89 25.868 123.711 25.868C124.547 25.868 125.288 26.0073 125.933 26.286C126.593 26.5647 127.151 26.9533 127.605 27.452C128.06 27.9507 128.405 28.552 128.639 29.256C128.889 29.96 129.013 30.73 129.013 31.566C129.013 31.6393 129.013 31.7053 129.013 31.764C128.999 31.8373 128.991 31.9033 128.991 31.962C128.977 32.0207 128.969 32.0793 128.969 32.138H120.675C120.719 32.6513 120.844 33.0987 121.049 33.48C121.255 33.8613 121.504 34.1767 121.797 34.426C122.105 34.6753 122.443 34.8587 122.809 34.976C123.176 35.0933 123.535 35.152 123.887 35.152C124.591 35.152 125.171 34.9833 125.625 34.646C126.08 34.3087 126.454 33.8907 126.747 33.392L128.837 34.426ZM126.571 30.268C126.542 30.048 126.469 29.806 126.351 29.542C126.249 29.2633 126.08 29.014 125.845 28.794C125.625 28.5593 125.332 28.3613 124.965 28.2C124.613 28.0387 124.181 27.958 123.667 27.958C122.963 27.958 122.355 28.1707 121.841 28.596C121.343 29.0067 121.005 29.564 120.829 30.268H126.571ZM131.725 28.376H129.833V26.22H131.725V22.92H134.167V26.22H136.829V28.376H134.167V33.172C134.167 33.436 134.196 33.678 134.255 33.898C134.313 34.118 134.401 34.3013 134.519 34.448C134.768 34.7267 135.083 34.866 135.465 34.866C135.699 34.866 135.883 34.8513 136.015 34.822C136.147 34.778 136.286 34.7193 136.433 34.646L137.181 36.802C136.873 36.9193 136.55 37.0073 136.213 37.066C135.875 37.1393 135.494 37.176 135.069 37.176C134.555 37.176 134.101 37.0953 133.705 36.934C133.309 36.7727 132.964 36.5527 132.671 36.274C132.04 35.6433 131.725 34.7853 131.725 33.7V28.376ZM145.093 24.306C144.624 24.306 144.228 24.1447 143.905 23.822C143.597 23.4993 143.443 23.1107 143.443 22.656C143.443 22.2013 143.597 21.8127 143.905 21.49C144.228 21.1673 144.624 21.006 145.093 21.006C145.548 21.006 145.929 21.1673 146.237 21.49C146.56 21.8127 146.721 22.2013 146.721 22.656C146.721 23.1107 146.56 23.4993 146.237 23.822C145.929 24.1447 145.548 24.306 145.093 24.306ZM143.861 37V26.22H146.303V37H143.861ZM150.029 28.376H148.137V26.22H150.029V22.92H152.471V26.22H155.133V28.376H152.471V33.172C152.471 33.436 152.501 33.678 152.559 33.898C152.618 34.118 152.706 34.3013 152.823 34.448C153.073 34.7267 153.388 34.866 153.769 34.866C154.004 34.866 154.187 34.8513 154.319 34.822C154.451 34.778 154.591 34.7193 154.737 34.646L155.485 36.802C155.177 36.9193 154.855 37.0073 154.517 37.066C154.18 37.1393 153.799 37.176 153.373 37.176C152.86 37.176 152.405 37.0953 152.009 36.934C151.613 36.7727 151.269 36.5527 150.975 36.274C150.345 35.6433 150.029 34.7853 150.029 33.7V28.376ZM166.708 21.072C167.119 21.072 167.485 21.1087 167.808 21.182C168.131 21.2553 168.417 21.3507 168.666 21.468L167.984 23.624C167.823 23.5507 167.654 23.492 167.478 23.448C167.302 23.404 167.082 23.382 166.818 23.382C166.393 23.382 166.026 23.5287 165.718 23.822C165.425 24.1153 165.278 24.5407 165.278 25.098V26.22H168.028V28.376H165.278V37H162.836V28.376H160.856V26.22H162.836V24.922C162.836 24.3207 162.931 23.7853 163.122 23.316C163.313 22.832 163.577 22.4287 163.914 22.106C164.266 21.7687 164.677 21.512 165.146 21.336C165.63 21.16 166.151 21.072 166.708 21.072ZM169.982 26.22H172.292V27.848H172.424C172.556 27.5693 172.732 27.3127 172.952 27.078C173.187 26.8287 173.443 26.6233 173.722 26.462C174.015 26.286 174.316 26.154 174.624 26.066C174.947 25.9633 175.255 25.912 175.548 25.912C175.9 25.912 176.201 25.9413 176.45 26C176.699 26.0587 176.927 26.1393 177.132 26.242L176.428 28.508C176.267 28.4347 176.083 28.3833 175.878 28.354C175.687 28.31 175.453 28.288 175.174 28.288C174.778 28.288 174.411 28.3687 174.074 28.53C173.751 28.6913 173.465 28.9113 173.216 29.19C172.967 29.4687 172.769 29.7987 172.622 30.18C172.49 30.5613 172.424 30.9647 172.424 31.39V37H169.982V26.22ZM182.797 25.868C183.618 25.868 184.373 26.0147 185.063 26.308C185.752 26.5867 186.346 26.9827 186.845 27.496C187.343 28.0093 187.732 28.618 188.011 29.322C188.289 30.026 188.429 30.7887 188.429 31.61C188.429 32.4313 188.289 33.194 188.011 33.898C187.732 34.602 187.343 35.2107 186.845 35.724C186.346 36.2373 185.752 36.6407 185.063 36.934C184.373 37.2127 183.618 37.352 182.797 37.352C181.975 37.352 181.22 37.2127 180.531 36.934C179.841 36.6407 179.247 36.2373 178.749 35.724C178.25 35.2107 177.861 34.602 177.583 33.898C177.304 33.194 177.165 32.4313 177.165 31.61C177.165 30.7887 177.304 30.026 177.583 29.322C177.861 28.618 178.25 28.0093 178.749 27.496C179.247 26.9827 179.841 26.5867 180.531 26.308C181.22 26.0147 181.975 25.868 182.797 25.868ZM182.797 35.086C183.207 35.086 183.603 35.0053 183.985 34.844C184.366 34.6827 184.703 34.4553 184.997 34.162C185.305 33.8687 185.547 33.5093 185.723 33.084C185.899 32.644 185.987 32.1527 185.987 31.61C185.987 31.0673 185.899 30.5833 185.723 30.158C185.547 29.718 185.305 29.3513 184.997 29.058C184.703 28.7647 184.366 28.5373 183.985 28.376C183.603 28.2147 183.207 28.134 182.797 28.134C182.386 28.134 181.99 28.2147 181.609 28.376C181.227 28.5373 180.883 28.7647 180.575 29.058C180.281 29.3513 180.047 29.718 179.871 30.158C179.695 30.5833 179.607 31.0673 179.607 31.61C179.607 32.1527 179.695 32.644 179.871 33.084C180.047 33.5093 180.281 33.8687 180.575 34.162C180.883 34.4553 181.227 34.6827 181.609 34.844C181.99 35.0053 182.386 35.086 182.797 35.086ZM190.07 26.22H192.38V27.672H192.512C192.849 27.144 193.319 26.7113 193.92 26.374C194.521 26.0367 195.159 25.868 195.834 25.868C196.641 25.868 197.33 26.0587 197.902 26.44C198.489 26.8067 198.914 27.2907 199.178 27.892C199.545 27.32 200.036 26.8433 200.652 26.462C201.268 26.066 202.009 25.868 202.874 25.868C203.534 25.868 204.106 25.978 204.59 26.198C205.074 26.4033 205.47 26.6967 205.778 27.078C206.101 27.4593 206.343 27.9213 206.504 28.464C206.665 28.992 206.746 29.586 206.746 30.246V37H204.304V30.664C204.304 29.7253 204.121 29.0727 203.754 28.706C203.402 28.3247 202.881 28.134 202.192 28.134C201.796 28.134 201.437 28.222 201.114 28.398C200.806 28.574 200.542 28.816 200.322 29.124C200.102 29.4173 199.933 29.762 199.816 30.158C199.699 30.554 199.64 30.972 199.64 31.412V37H197.198V30.664C197.198 29.7253 197.007 29.0727 196.626 28.706C196.259 28.3247 195.724 28.134 195.02 28.134C194.639 28.134 194.294 28.222 193.986 28.398C193.678 28.574 193.414 28.816 193.194 29.124C192.974 29.4173 192.805 29.762 192.688 30.158C192.571 30.554 192.512 30.972 192.512 31.412V37H190.07V26.22Z" fill="white"/>
<path d="M103.168 53.496H108.14L118.436 71.404H118.7L128.996 53.496H133.924V85H128.996V67.884L129.26 62.604H128.996L120.02 78.312H117.072L108.14 62.604H107.876L108.14 67.884V85H103.168V53.496ZM142.362 59.612C141.423 59.612 140.631 59.2893 139.986 58.644C139.37 57.9987 139.062 57.2213 139.062 56.312C139.062 55.4027 139.37 54.6253 139.986 53.98C140.631 53.3347 141.423 53.012 142.362 53.012C143.271 53.012 144.034 53.3347 144.65 53.98C145.295 54.6253 145.618 55.4027 145.618 56.312C145.618 57.2213 145.295 57.9987 144.65 58.644C144.034 59.2893 143.271 59.612 142.362 59.612ZM139.898 85V63.44H144.782V85H139.898ZM169.791 79.5C169.38 80.3507 168.867 81.1573 168.251 81.92C167.664 82.6533 166.96 83.3133 166.139 83.9C165.347 84.4573 164.423 84.8973 163.367 85.22C162.311 85.5427 161.152 85.704 159.891 85.704C158.248 85.704 156.737 85.4253 155.359 84.868C153.98 84.2813 152.792 83.4747 151.795 82.448C150.797 81.4213 150.02 80.204 149.463 78.796C148.905 77.388 148.627 75.8627 148.627 74.22C148.627 72.5773 148.905 71.052 149.463 69.644C150.02 68.236 150.797 67.0187 151.795 65.992C152.792 64.9653 153.98 64.1733 155.359 63.616C156.737 63.0293 158.248 62.736 159.891 62.736C161.152 62.736 162.296 62.8973 163.323 63.22C164.379 63.5427 165.303 63.9973 166.095 64.584C166.916 65.1413 167.62 65.8013 168.207 66.564C168.793 67.2973 169.263 68.0747 169.615 68.896L165.127 70.788C164.628 69.6733 163.939 68.808 163.059 68.192C162.179 67.576 161.064 67.268 159.715 67.268C158.893 67.268 158.101 67.444 157.339 67.796C156.605 68.1187 155.945 68.588 155.359 69.204C154.801 69.7907 154.347 70.5093 153.995 71.36C153.672 72.2107 153.511 73.164 153.511 74.22C153.511 75.276 153.672 76.2293 153.995 77.08C154.347 77.9307 154.801 78.664 155.359 79.28C155.945 79.8667 156.605 80.336 157.339 80.688C158.101 81.0107 158.893 81.172 159.715 81.172C161.064 81.172 162.208 80.864 163.147 80.248C164.115 79.6027 164.863 78.7227 165.391 77.608L169.791 79.5ZM173.105 63.44H177.725V66.696H177.989C178.253 66.1387 178.605 65.6253 179.045 65.156C179.514 64.6573 180.027 64.2467 180.585 63.924C181.171 63.572 181.773 63.308 182.389 63.132C183.034 62.9267 183.65 62.824 184.237 62.824C184.941 62.824 185.542 62.8827 186.041 63C186.539 63.1173 186.994 63.2787 187.405 63.484L185.997 68.016C185.674 67.8693 185.307 67.7667 184.897 67.708C184.515 67.62 184.046 67.576 183.489 67.576C182.697 67.576 181.963 67.7373 181.289 68.06C180.643 68.3827 180.071 68.8227 179.573 69.38C179.074 69.9373 178.678 70.5973 178.385 71.36C178.121 72.1227 177.989 72.9293 177.989 73.78V85H173.105V63.44ZM198.734 62.736C200.377 62.736 201.888 63.0293 203.266 63.616C204.645 64.1733 205.833 64.9653 206.83 65.992C207.828 67.0187 208.605 68.236 209.162 69.644C209.72 71.052 209.998 72.5773 209.998 74.22C209.998 75.8627 209.72 77.388 209.162 78.796C208.605 80.204 207.828 81.4213 206.83 82.448C205.833 83.4747 204.645 84.2813 203.266 84.868C201.888 85.4253 200.377 85.704 198.734 85.704C197.092 85.704 195.581 85.4253 194.202 84.868C192.824 84.2813 191.636 83.4747 190.638 82.448C189.641 81.4213 188.864 80.204 188.306 78.796C187.749 77.388 187.47 75.8627 187.47 74.22C187.47 72.5773 187.749 71.052 188.306 69.644C188.864 68.236 189.641 67.0187 190.638 65.992C191.636 64.9653 192.824 64.1733 194.202 63.616C195.581 63.0293 197.092 62.736 198.734 62.736ZM198.734 81.172C199.556 81.172 200.348 81.0107 201.11 80.688C201.873 80.3653 202.548 79.9107 203.134 79.324C203.75 78.7373 204.234 78.0187 204.586 77.168C204.938 76.288 205.114 75.3053 205.114 74.22C205.114 73.1347 204.938 72.1667 204.586 71.316C204.234 70.436 203.75 69.7027 203.134 69.116C202.548 68.5293 201.873 68.0747 201.11 67.752C200.348 67.4293 199.556 67.268 198.734 67.268C197.913 67.268 197.121 67.4293 196.358 67.752C195.596 68.0747 194.906 68.5293 194.29 69.116C193.704 69.7027 193.234 70.436 192.882 71.316C192.53 72.1667 192.354 73.1347 192.354 74.22C192.354 75.3053 192.53 76.288 192.882 77.168C193.234 78.0187 193.704 78.7373 194.29 79.324C194.906 79.9107 195.596 80.3653 196.358 80.688C197.121 81.0107 197.913 81.172 198.734 81.172ZM221.679 85.704C220.359 85.704 219.171 85.528 218.115 85.176C217.059 84.824 216.135 84.3693 215.343 83.812C214.551 83.2253 213.877 82.5653 213.319 81.832C212.791 81.0987 212.381 80.336 212.087 79.544L216.487 77.696C216.986 78.9573 217.705 79.896 218.643 80.512C219.582 81.0987 220.594 81.392 221.679 81.392C222.911 81.392 223.879 81.1427 224.583 80.644C225.287 80.1453 225.639 79.588 225.639 78.972C225.639 78.356 225.375 77.828 224.847 77.388C224.319 76.9187 223.322 76.508 221.855 76.156L218.775 75.408C218.101 75.2613 217.411 75.0413 216.707 74.748C216.033 74.4253 215.402 74.0293 214.815 73.56C214.229 73.0613 213.745 72.4747 213.363 71.8C213.011 71.096 212.835 70.2747 212.835 69.336C212.835 68.28 213.055 67.3413 213.495 66.52C213.965 65.6987 214.595 65.0093 215.387 64.452C216.179 63.8947 217.089 63.4693 218.115 63.176C219.171 62.8827 220.286 62.736 221.459 62.736C222.427 62.736 223.351 62.8387 224.231 63.044C225.141 63.2493 225.977 63.5573 226.739 63.968C227.502 64.3787 228.177 64.9067 228.763 65.552C229.379 66.168 229.863 66.9013 230.215 67.752L225.903 69.556C225.493 68.6173 224.847 67.9427 223.967 67.532C223.087 67.092 222.193 66.872 221.283 66.872C220.873 66.872 220.447 66.9307 220.007 67.048C219.597 67.136 219.215 67.2827 218.863 67.488C218.541 67.664 218.262 67.8987 218.027 68.192C217.822 68.4853 217.719 68.808 217.719 69.16C217.719 69.7467 217.969 70.216 218.467 70.568C218.995 70.8907 219.787 71.184 220.843 71.448L224.143 72.284C226.373 72.8413 228.001 73.692 229.027 74.836C230.083 75.9507 230.611 77.2707 230.611 78.796C230.611 79.7347 230.391 80.6147 229.951 81.436C229.541 82.2573 228.939 82.9907 228.147 83.636C227.355 84.2813 226.402 84.78 225.287 85.132C224.202 85.5133 222.999 85.704 221.679 85.704ZM244.367 62.736C246.01 62.736 247.52 63.0293 248.899 63.616C250.278 64.1733 251.466 64.9653 252.463 65.992C253.46 67.0187 254.238 68.236 254.795 69.644C255.352 71.052 255.631 72.5773 255.631 74.22C255.631 75.8627 255.352 77.388 254.795 78.796C254.238 80.204 253.46 81.4213 252.463 82.448C251.466 83.4747 250.278 84.2813 248.899 84.868C247.52 85.4253 246.01 85.704 244.367 85.704C242.724 85.704 241.214 85.4253 239.835 84.868C238.456 84.2813 237.268 83.4747 236.271 82.448C235.274 81.4213 234.496 80.204 233.939 78.796C233.382 77.388 233.103 75.8627 233.103 74.22C233.103 72.5773 233.382 71.052 233.939 69.644C234.496 68.236 235.274 67.0187 236.271 65.992C237.268 64.9653 238.456 64.1733 239.835 63.616C241.214 63.0293 242.724 62.736 244.367 62.736ZM244.367 81.172C245.188 81.172 245.98 81.0107 246.743 80.688C247.506 80.3653 248.18 79.9107 248.767 79.324C249.383 78.7373 249.867 78.0187 250.219 77.168C250.571 76.288 250.747 75.3053 250.747 74.22C250.747 73.1347 250.571 72.1667 250.219 71.316C249.867 70.436 249.383 69.7027 248.767 69.116C248.18 68.5293 247.506 68.0747 246.743 67.752C245.98 67.4293 245.188 67.268 244.367 67.268C243.546 67.268 242.754 67.4293 241.991 67.752C241.228 68.0747 240.539 68.5293 239.923 69.116C239.336 69.7027 238.867 70.436 238.515 71.316C238.163 72.1667 237.987 73.1347 237.987 74.22C237.987 75.3053 238.163 76.288 238.515 77.168C238.867 78.0187 239.336 78.7373 239.923 79.324C240.539 79.9107 241.228 80.3653 241.991 80.688C242.754 81.0107 243.546 81.172 244.367 81.172ZM275.066 67.752H266.134V85H261.25V67.752H257.29V63.44H261.25V60.844C261.25 59.6413 261.441 58.5707 261.822 57.632C262.204 56.664 262.732 55.8573 263.406 55.212C264.11 54.5373 264.932 54.024 265.87 53.672C266.838 53.32 267.88 53.144 268.994 53.144C269.669 53.144 270.241 53.2027 270.71 53.32C271.209 53.408 271.649 53.5253 272.03 53.672L271.282 58.16C271.018 58.0427 270.725 57.9547 270.402 57.896C270.109 57.808 269.713 57.764 269.214 57.764C268.364 57.764 267.63 58.0573 267.014 58.644C266.428 59.2307 266.134 60.0813 266.134 61.196V63.44H275.066V56.84H279.95V63.44H285.274V67.752H279.95V77.344C279.95 77.872 280.009 78.356 280.126 78.796C280.244 79.236 280.42 79.6027 280.654 79.896C281.153 80.4533 281.784 80.732 282.546 80.732C283.016 80.732 283.382 80.7027 283.646 80.644C283.91 80.556 284.189 80.4387 284.482 80.292L285.978 84.604C285.362 84.8387 284.717 85.0147 284.042 85.132C283.368 85.2787 282.605 85.352 281.754 85.352C280.728 85.352 279.818 85.1907 279.026 84.868C278.234 84.5453 277.545 84.1053 276.958 83.548C275.697 82.2867 275.066 80.5707 275.066 78.4V67.752ZM307.659 85.704C306.398 85.704 305.166 85.5133 303.963 85.132C302.79 84.78 301.69 84.2373 300.663 83.504C299.666 82.7707 298.786 81.8613 298.023 80.776C297.26 79.6907 296.674 78.4293 296.263 76.992L301.015 75.056C301.22 75.8773 301.514 76.6547 301.895 77.388C302.306 78.092 302.79 78.708 303.347 79.236C303.934 79.764 304.579 80.1893 305.283 80.512C306.016 80.8053 306.823 80.952 307.703 80.952C308.436 80.952 309.14 80.864 309.815 80.688C310.49 80.4827 311.076 80.1893 311.575 79.808C312.074 79.4267 312.47 78.9573 312.763 78.4C313.086 77.8427 313.247 77.1973 313.247 76.464C313.247 75.8187 313.13 75.232 312.895 74.704C312.66 74.176 312.294 73.692 311.795 73.252C311.296 72.812 310.636 72.4013 309.815 72.02C308.994 71.6093 308.011 71.1987 306.867 70.788L304.887 70.084C304.036 69.7907 303.156 69.4093 302.247 68.94C301.367 68.4413 300.56 67.8547 299.827 67.18C299.123 66.476 298.536 65.6547 298.067 64.716C297.627 63.7773 297.407 62.6773 297.407 61.416C297.407 60.2427 297.642 59.1427 298.111 58.116C298.61 57.06 299.299 56.136 300.179 55.344C301.059 54.552 302.1 53.936 303.303 53.496C304.535 53.0267 305.884 52.792 307.351 52.792C308.876 52.792 310.211 53.012 311.355 53.452C312.528 53.8627 313.511 54.3907 314.303 55.036C315.095 55.6813 315.726 56.4 316.195 57.192C316.694 57.9547 317.06 58.6733 317.295 59.348L312.807 61.24C312.66 60.8 312.44 60.36 312.147 59.92C311.883 59.4507 311.531 59.04 311.091 58.688C310.651 58.336 310.123 58.0427 309.507 57.808C308.92 57.5733 308.231 57.456 307.439 57.456C306.735 57.456 306.075 57.5587 305.459 57.764C304.843 57.94 304.3 58.204 303.831 58.556C303.391 58.908 303.039 59.3187 302.775 59.788C302.511 60.2573 302.379 60.7707 302.379 61.328C302.379 62.4427 302.834 63.352 303.743 64.056C304.682 64.7307 306.046 65.376 307.835 65.992L309.815 66.696C311.047 67.1067 312.176 67.5907 313.203 68.148C314.23 68.7053 315.124 69.38 315.887 70.172C316.65 70.9347 317.236 71.8293 317.647 72.856C318.087 73.8827 318.307 75.0707 318.307 76.42C318.307 78.0627 317.97 79.4707 317.295 80.644C316.65 81.788 315.814 82.7413 314.787 83.504C313.76 84.2667 312.616 84.824 311.355 85.176C310.094 85.528 308.862 85.704 307.659 85.704ZM323.766 67.752H319.982V63.44H323.766V56.84H328.65V63.44H333.974V67.752H328.65V77.344C328.65 77.872 328.708 78.356 328.826 78.796C328.943 79.236 329.119 79.6027 329.354 79.896C329.852 80.4533 330.483 80.732 331.246 80.732C331.715 80.732 332.082 80.7027 332.346 80.644C332.61 80.556 332.888 80.4387 333.182 80.292L334.678 84.604C334.062 84.8387 333.416 85.0147 332.742 85.132C332.067 85.2787 331.304 85.352 330.454 85.352C329.427 85.352 328.518 85.1907 327.726 84.868C326.934 84.5453 326.244 84.1053 325.658 83.548C324.396 82.2867 323.766 80.5707 323.766 78.4V67.752ZM347.836 62.736C349.479 62.736 350.989 63.0293 352.368 63.616C353.747 64.1733 354.935 64.9653 355.932 65.992C356.929 67.0187 357.707 68.236 358.264 69.644C358.821 71.052 359.1 72.5773 359.1 74.22C359.1 75.8627 358.821 77.388 358.264 78.796C357.707 80.204 356.929 81.4213 355.932 82.448C354.935 83.4747 353.747 84.2813 352.368 84.868C350.989 85.4253 349.479 85.704 347.836 85.704C346.193 85.704 344.683 85.4253 343.304 84.868C341.925 84.2813 340.737 83.4747 339.74 82.448C338.743 81.4213 337.965 80.204 337.408 78.796C336.851 77.388 336.572 75.8627 336.572 74.22C336.572 72.5773 336.851 71.052 337.408 69.644C337.965 68.236 338.743 67.0187 339.74 65.992C340.737 64.9653 341.925 64.1733 343.304 63.616C344.683 63.0293 346.193 62.736 347.836 62.736ZM347.836 81.172C348.657 81.172 349.449 81.0107 350.212 80.688C350.975 80.3653 351.649 79.9107 352.236 79.324C352.852 78.7373 353.336 78.0187 353.688 77.168C354.04 76.288 354.216 75.3053 354.216 74.22C354.216 73.1347 354.04 72.1667 353.688 71.316C353.336 70.436 352.852 69.7027 352.236 69.116C351.649 68.5293 350.975 68.0747 350.212 67.752C349.449 67.4293 348.657 67.268 347.836 67.268C347.015 67.268 346.223 67.4293 345.46 67.752C344.697 68.0747 344.008 68.5293 343.392 69.116C342.805 69.7027 342.336 70.436 341.984 71.316C341.632 72.1667 341.456 73.1347 341.456 74.22C341.456 75.3053 341.632 76.288 341.984 77.168C342.336 78.0187 342.805 78.7373 343.392 79.324C344.008 79.9107 344.697 80.3653 345.46 80.688C346.223 81.0107 347.015 81.172 347.836 81.172ZM362.382 63.44H367.002V66.696H367.266C367.53 66.1387 367.882 65.6253 368.322 65.156C368.791 64.6573 369.305 64.2467 369.862 63.924C370.449 63.572 371.05 63.308 371.666 63.132C372.311 62.9267 372.927 62.824 373.514 62.824C374.218 62.824 374.819 62.8827 375.318 63C375.817 63.1173 376.271 63.2787 376.682 63.484L375.274 68.016C374.951 67.8693 374.585 67.7667 374.174 67.708C373.793 67.62 373.323 67.576 372.766 67.576C371.974 67.576 371.241 67.7373 370.566 68.06C369.921 68.3827 369.349 68.8227 368.85 69.38C368.351 69.9373 367.955 70.5973 367.662 71.36C367.398 72.1227 367.266 72.9293 367.266 73.78V85H362.382V63.44ZM397.956 79.852C397.046 81.524 395.756 82.9173 394.084 84.032C392.412 85.1467 390.358 85.704 387.924 85.704C386.31 85.704 384.814 85.4253 383.436 84.868C382.086 84.2813 380.913 83.4747 379.916 82.448C378.918 81.4213 378.141 80.2187 377.584 78.84C377.026 77.432 376.748 75.892 376.748 74.22C376.748 72.6653 377.012 71.1987 377.54 69.82C378.068 68.412 378.801 67.1947 379.74 66.168C380.708 65.112 381.866 64.276 383.216 63.66C384.565 63.044 386.061 62.736 387.704 62.736C389.376 62.736 390.857 63.0147 392.148 63.572C393.468 64.1293 394.582 64.9067 395.492 65.904C396.401 66.9013 397.09 68.104 397.56 69.512C398.058 70.92 398.308 72.46 398.308 74.132C398.308 74.2787 398.308 74.4107 398.308 74.528C398.278 74.6747 398.264 74.8067 398.264 74.924C398.234 75.0413 398.22 75.1587 398.22 75.276H381.632C381.72 76.3027 381.969 77.1973 382.38 77.96C382.79 78.7227 383.289 79.3533 383.876 79.852C384.492 80.3507 385.166 80.7173 385.9 80.952C386.633 81.1867 387.352 81.304 388.056 81.304C389.464 81.304 390.622 80.9667 391.532 80.292C392.441 79.6173 393.189 78.7813 393.776 77.784L397.956 79.852ZM393.424 71.536C393.365 71.096 393.218 70.612 392.984 70.084C392.778 69.5267 392.441 69.028 391.972 68.588C391.532 68.1187 390.945 67.7227 390.212 67.4C389.508 67.0773 388.642 66.916 387.616 66.916C386.208 66.916 384.99 67.3413 383.964 68.192C382.966 69.0133 382.292 70.128 381.94 71.536H393.424Z" fill="white"/>
<defs>
<clipPath id="clip0_1_658">
<rect width="60" height="60" fill="white" transform="translate(24 26)"/>
</clipPath>
</defs>
</svg>
