<svg width="332" height="90" viewBox="0 0 332 90" fill="none" xmlns="http://www.w3.org/2000/svg">
<rect x="1" y="1" width="330" height="88" rx="19" fill="black"/>
<rect x="1" y="1" width="330" height="88" rx="19" stroke="#6D6D6D" stroke-width="2"/>
<g clip-path="url(#clip0_1_658)">
<path d="M24 20H47.8095V43.8095H24V20Z" fill="#F35325"/>
<path d="M50.1904 20H73.9999V43.8095H50.1904V20Z" fill="#81BC06"/>
<path d="M24 46.1906H47.8095V70.0001H24V46.1906Z" fill="#05A6F0"/>
<path d="M50.1904 46.1906H73.9999V70.0001H50.1904V46.1906Z" fill="#FFBA08"/>
</g>
<path d="M96.576 24.792H102.16C102.181 24.9307 102.203 25.08 102.224 25.24C102.245 25.3893 102.256 25.5493 102.256 25.72C102.256 26.4027 102.149 27.08 101.936 27.752C101.723 28.424 101.36 29.0213 100.848 29.544C100.325 30.088 99.712 30.5093 99.008 30.808C98.304 31.1067 97.4987 31.256 96.592 31.256C95.7707 31.256 94.992 31.1067 94.256 30.808C93.5307 30.5093 92.896 30.0933 92.352 29.56C91.808 29.0267 91.376 28.3973 91.056 27.672C90.7467 26.936 90.592 26.136 90.592 25.272C90.592 24.408 90.7467 23.6133 91.056 22.888C91.376 22.152 91.808 21.5173 92.352 20.984C92.896 20.4507 93.5307 20.0347 94.256 19.736C94.992 19.4373 95.7707 19.288 96.592 19.288C97.4667 19.288 98.272 19.4427 99.008 19.752C99.7547 20.0613 100.379 20.4933 100.88 21.048L99.616 22.312C99.2427 21.896 98.8 21.576 98.288 21.352C97.7867 21.128 97.216 21.016 96.576 21.016C96.032 21.016 95.5093 21.1173 95.008 21.32C94.5067 21.5227 94.064 21.8107 93.68 22.184C93.296 22.5467 92.992 22.9893 92.768 23.512C92.544 24.0347 92.432 24.6213 92.432 25.272C92.432 25.9227 92.544 26.5093 92.768 27.032C92.992 27.5547 93.296 28.0027 93.68 28.376C94.064 28.7387 94.5067 29.0213 95.008 29.224C95.5093 29.4267 96.0373 29.528 96.592 29.528C97.328 29.528 97.92 29.416 98.368 29.192C98.8267 28.968 99.2107 28.7067 99.52 28.408C99.744 28.1947 99.9413 27.9173 100.112 27.576C100.283 27.224 100.395 26.84 100.448 26.424H96.576V24.792ZM110.973 29.128C110.642 29.736 110.173 30.2427 109.565 30.648C108.957 31.0533 108.21 31.256 107.325 31.256C106.738 31.256 106.194 31.1547 105.693 30.952C105.202 30.7387 104.775 30.4453 104.413 30.072C104.05 29.6987 103.767 29.2613 103.565 28.76C103.362 28.248 103.261 27.688 103.261 27.08C103.261 26.5147 103.357 25.9813 103.549 25.48C103.741 24.968 104.007 24.5253 104.349 24.152C104.701 23.768 105.122 23.464 105.613 23.24C106.103 23.016 106.647 22.904 107.245 22.904C107.853 22.904 108.391 23.0053 108.861 23.208C109.341 23.4107 109.746 23.6933 110.077 24.056C110.407 24.4187 110.658 24.856 110.829 25.368C111.01 25.88 111.101 26.44 111.101 27.048C111.101 27.1013 111.101 27.1493 111.101 27.192C111.09 27.2453 111.085 27.2933 111.085 27.336C111.074 27.3787 111.069 27.4213 111.069 27.464H105.037C105.069 27.8373 105.159 28.1627 105.309 28.44C105.458 28.7173 105.639 28.9467 105.853 29.128C106.077 29.3093 106.322 29.4427 106.589 29.528C106.855 29.6133 107.117 29.656 107.373 29.656C107.885 29.656 108.306 29.5333 108.637 29.288C108.967 29.0427 109.239 28.7387 109.453 28.376L110.973 29.128ZM109.325 26.104C109.303 25.944 109.25 25.768 109.165 25.576C109.09 25.3733 108.967 25.192 108.797 25.032C108.637 24.8613 108.423 24.7173 108.157 24.6C107.901 24.4827 107.586 24.424 107.213 24.424C106.701 24.424 106.258 24.5787 105.885 24.888C105.522 25.1867 105.277 25.592 105.149 26.104H109.325ZM113.073 24.728H111.697V23.16H113.073V20.76H114.849V23.16H116.785V24.728H114.849V28.216C114.849 28.408 114.87 28.584 114.913 28.744C114.955 28.904 115.019 29.0373 115.105 29.144C115.286 29.3467 115.515 29.448 115.793 29.448C115.963 29.448 116.097 29.4373 116.193 29.416C116.289 29.384 116.39 29.3413 116.497 29.288L117.041 30.856C116.817 30.9413 116.582 31.0053 116.337 31.048C116.091 31.1013 115.814 31.128 115.505 31.128C115.131 31.128 114.801 31.0693 114.513 30.952C114.225 30.8347 113.974 30.6747 113.761 30.472C113.302 30.0133 113.073 29.3893 113.073 28.6V24.728ZM122.795 21.768C122.454 21.768 122.166 21.6507 121.931 21.416C121.707 21.1813 121.595 20.8987 121.595 20.568C121.595 20.2373 121.707 19.9547 121.931 19.72C122.166 19.4853 122.454 19.368 122.795 19.368C123.126 19.368 123.403 19.4853 123.627 19.72C123.862 19.9547 123.979 20.2373 123.979 20.568C123.979 20.8987 123.862 21.1813 123.627 21.416C123.403 21.6507 123.126 21.768 122.795 21.768ZM121.899 31V23.16H123.675V31H121.899ZM126.385 24.728H125.009V23.16H126.385V20.76H128.161V23.16H130.097V24.728H128.161V28.216C128.161 28.408 128.182 28.584 128.225 28.744C128.268 28.904 128.332 29.0373 128.417 29.144C128.598 29.3467 128.828 29.448 129.105 29.448C129.276 29.448 129.409 29.4373 129.505 29.416C129.601 29.384 129.702 29.3413 129.809 29.288L130.353 30.856C130.129 30.9413 129.894 31.0053 129.649 31.048C129.404 31.1013 129.126 31.128 128.817 31.128C128.444 31.128 128.113 31.0693 127.825 30.952C127.537 30.8347 127.286 30.6747 127.073 30.472C126.614 30.0133 126.385 29.3893 126.385 28.6V24.728ZM138.515 19.416C138.814 19.416 139.08 19.4427 139.315 19.496C139.55 19.5493 139.758 19.6187 139.939 19.704L139.443 21.272C139.326 21.2187 139.203 21.176 139.075 21.144C138.947 21.112 138.787 21.096 138.595 21.096C138.286 21.096 138.019 21.2027 137.795 21.416C137.582 21.6293 137.475 21.9387 137.475 22.344V23.16H139.475V24.728H137.475V31H135.699V24.728H134.259V23.16H135.699V22.216C135.699 21.7787 135.768 21.3893 135.907 21.048C136.046 20.696 136.238 20.4027 136.483 20.168C136.739 19.9227 137.038 19.736 137.379 19.608C137.731 19.48 138.11 19.416 138.515 19.416ZM140.896 23.16H142.576V24.344H142.672C142.768 24.1413 142.896 23.9547 143.056 23.784C143.227 23.6027 143.413 23.4533 143.616 23.336C143.829 23.208 144.048 23.112 144.272 23.048C144.507 22.9733 144.731 22.936 144.944 22.936C145.2 22.936 145.419 22.9573 145.6 23C145.781 23.0427 145.947 23.1013 146.096 23.176L145.584 24.824C145.467 24.7707 145.333 24.7333 145.184 24.712C145.045 24.68 144.875 24.664 144.672 24.664C144.384 24.664 144.117 24.7227 143.872 24.84C143.637 24.9573 143.429 25.1173 143.248 25.32C143.067 25.5227 142.923 25.7627 142.816 26.04C142.72 26.3173 142.672 26.6107 142.672 26.92V31H140.896V23.16ZM150.216 22.904C150.813 22.904 151.363 23.0107 151.864 23.224C152.365 23.4267 152.797 23.7147 153.16 24.088C153.523 24.4613 153.805 24.904 154.008 25.416C154.211 25.928 154.312 26.4827 154.312 27.08C154.312 27.6773 154.211 28.232 154.008 28.744C153.805 29.256 153.523 29.6987 153.16 30.072C152.797 30.4453 152.365 30.7387 151.864 30.952C151.363 31.1547 150.813 31.256 150.216 31.256C149.619 31.256 149.069 31.1547 148.568 30.952C148.067 30.7387 147.635 30.4453 147.272 30.072C146.909 29.6987 146.627 29.256 146.424 28.744C146.221 28.232 146.12 27.6773 146.12 27.08C146.12 26.4827 146.221 25.928 146.424 25.416C146.627 24.904 146.909 24.4613 147.272 24.088C147.635 23.7147 148.067 23.4267 148.568 23.224C149.069 23.0107 149.619 22.904 150.216 22.904ZM150.216 29.608C150.515 29.608 150.803 29.5493 151.08 29.432C151.357 29.3147 151.603 29.1493 151.816 28.936C152.04 28.7227 152.216 28.4613 152.344 28.152C152.472 27.832 152.536 27.4747 152.536 27.08C152.536 26.6853 152.472 26.3333 152.344 26.024C152.216 25.704 152.04 25.4373 151.816 25.224C151.603 25.0107 151.357 24.8453 151.08 24.728C150.803 24.6107 150.515 24.552 150.216 24.552C149.917 24.552 149.629 24.6107 149.352 24.728C149.075 24.8453 148.824 25.0107 148.6 25.224C148.387 25.4373 148.216 25.704 148.088 26.024C147.96 26.3333 147.896 26.6853 147.896 27.08C147.896 27.4747 147.96 27.832 148.088 28.152C148.216 28.4613 148.387 28.7227 148.6 28.936C148.824 29.1493 149.075 29.3147 149.352 29.432C149.629 29.5493 149.917 29.608 150.216 29.608ZM155.505 23.16H157.185V24.216H157.281C157.527 23.832 157.868 23.5173 158.305 23.272C158.743 23.0267 159.207 22.904 159.697 22.904C160.284 22.904 160.785 23.0427 161.201 23.32C161.628 23.5867 161.937 23.9387 162.129 24.376C162.396 23.96 162.753 23.6133 163.201 23.336C163.649 23.048 164.188 22.904 164.817 22.904C165.297 22.904 165.713 22.984 166.065 23.144C166.417 23.2933 166.705 23.5067 166.929 23.784C167.164 24.0613 167.34 24.3973 167.457 24.792C167.575 25.176 167.633 25.608 167.633 26.088V31H165.857V26.392C165.857 25.7093 165.724 25.2347 165.457 24.968C165.201 24.6907 164.823 24.552 164.321 24.552C164.033 24.552 163.772 24.616 163.537 24.744C163.313 24.872 163.121 25.048 162.961 25.272C162.801 25.4853 162.679 25.736 162.593 26.024C162.508 26.312 162.465 26.616 162.465 26.936V31H160.689V26.392C160.689 25.7093 160.551 25.2347 160.273 24.968C160.007 24.6907 159.617 24.552 159.105 24.552C158.828 24.552 158.577 24.616 158.353 24.744C158.129 24.872 157.937 25.048 157.777 25.272C157.617 25.4853 157.495 25.736 157.409 26.024C157.324 26.312 157.281 26.616 157.281 26.936V31H155.505V23.16Z" fill="white"/>
<path d="M92.304 43.088H95.92L103.408 56.112H103.6L111.088 43.088H114.672V66H111.088V53.552L111.28 49.712H111.088L104.56 61.136H102.416L95.92 49.712H95.728L95.92 53.552V66H92.304V43.088ZM120.809 47.536C120.126 47.536 119.55 47.3013 119.081 46.832C118.633 46.3627 118.409 45.7973 118.409 45.136C118.409 44.4747 118.633 43.9093 119.081 43.44C119.55 42.9707 120.126 42.736 120.809 42.736C121.47 42.736 122.025 42.9707 122.473 43.44C122.942 43.9093 123.177 44.4747 123.177 45.136C123.177 45.7973 122.942 46.3627 122.473 46.832C122.025 47.3013 121.47 47.536 120.809 47.536ZM119.017 66V50.32H122.569V66H119.017ZM140.757 62C140.458 62.6187 140.085 63.2053 139.637 63.76C139.21 64.2933 138.698 64.7733 138.101 65.2C137.525 65.6053 136.853 65.9253 136.085 66.16C135.317 66.3947 134.474 66.512 133.557 66.512C132.362 66.512 131.263 66.3093 130.261 65.904C129.258 65.4773 128.394 64.8907 127.669 64.144C126.943 63.3973 126.378 62.512 125.973 61.488C125.567 60.464 125.365 59.3547 125.365 58.16C125.365 56.9653 125.567 55.856 125.973 54.832C126.378 53.808 126.943 52.9227 127.669 52.176C128.394 51.4293 129.258 50.8533 130.261 50.448C131.263 50.0213 132.362 49.808 133.557 49.808C134.474 49.808 135.306 49.9253 136.053 50.16C136.821 50.3947 137.493 50.7253 138.069 51.152C138.666 51.5573 139.178 52.0373 139.605 52.592C140.031 53.1253 140.373 53.6907 140.629 54.288L137.365 55.664C137.002 54.8533 136.501 54.224 135.861 53.776C135.221 53.328 134.41 53.104 133.429 53.104C132.831 53.104 132.255 53.232 131.701 53.488C131.167 53.7227 130.687 54.064 130.261 54.512C129.855 54.9387 129.525 55.4613 129.269 56.08C129.034 56.6987 128.917 57.392 128.917 58.16C128.917 58.928 129.034 59.6213 129.269 60.24C129.525 60.8587 129.855 61.392 130.261 61.84C130.687 62.2667 131.167 62.608 131.701 62.864C132.255 63.0987 132.831 63.216 133.429 63.216C134.41 63.216 135.242 62.992 135.925 62.544C136.629 62.0747 137.173 61.4347 137.557 60.624L140.757 62ZM143.167 50.32H146.527V52.688H146.719C146.911 52.2827 147.167 51.9093 147.487 51.568C147.828 51.2053 148.202 50.9067 148.607 50.672C149.034 50.416 149.471 50.224 149.919 50.096C150.388 49.9467 150.836 49.872 151.263 49.872C151.775 49.872 152.212 49.9147 152.575 50C152.938 50.0853 153.268 50.2027 153.567 50.352L152.543 53.648C152.308 53.5413 152.042 53.4667 151.743 53.424C151.466 53.36 151.124 53.328 150.719 53.328C150.143 53.328 149.61 53.4453 149.119 53.68C148.65 53.9147 148.234 54.2347 147.871 54.64C147.508 55.0453 147.22 55.5253 147.007 56.08C146.815 56.6347 146.719 57.2213 146.719 57.84V66H143.167V50.32ZM161.807 49.808C163.001 49.808 164.1 50.0213 165.103 50.448C166.105 50.8533 166.969 51.4293 167.695 52.176C168.42 52.9227 168.985 53.808 169.391 54.832C169.796 55.856 169.999 56.9653 169.999 58.16C169.999 59.3547 169.796 60.464 169.391 61.488C168.985 62.512 168.42 63.3973 167.695 64.144C166.969 64.8907 166.105 65.4773 165.103 65.904C164.1 66.3093 163.001 66.512 161.807 66.512C160.612 66.512 159.513 66.3093 158.511 65.904C157.508 65.4773 156.644 64.8907 155.919 64.144C155.193 63.3973 154.628 62.512 154.223 61.488C153.817 60.464 153.615 59.3547 153.615 58.16C153.615 56.9653 153.817 55.856 154.223 54.832C154.628 53.808 155.193 52.9227 155.919 52.176C156.644 51.4293 157.508 50.8533 158.511 50.448C159.513 50.0213 160.612 49.808 161.807 49.808ZM161.807 63.216C162.404 63.216 162.98 63.0987 163.535 62.864C164.089 62.6293 164.58 62.2987 165.007 61.872C165.455 61.4453 165.807 60.9227 166.063 60.304C166.319 59.664 166.447 58.9493 166.447 58.16C166.447 57.3707 166.319 56.6667 166.063 56.048C165.807 55.408 165.455 54.8747 165.007 54.448C164.58 54.0213 164.089 53.6907 163.535 53.456C162.98 53.2213 162.404 53.104 161.807 53.104C161.209 53.104 160.633 53.2213 160.079 53.456C159.524 53.6907 159.023 54.0213 158.575 54.448C158.148 54.8747 157.807 55.408 157.551 56.048C157.295 56.6667 157.167 57.3707 157.167 58.16C157.167 58.9493 157.295 59.664 157.551 60.304C157.807 60.9227 158.148 61.4453 158.575 61.872C159.023 62.2987 159.524 62.6293 160.079 62.864C160.633 63.0987 161.209 63.216 161.807 63.216ZM178.494 66.512C177.534 66.512 176.67 66.384 175.902 66.128C175.134 65.872 174.462 65.5413 173.886 65.136C173.31 64.7093 172.819 64.2293 172.414 63.696C172.03 63.1627 171.731 62.608 171.518 62.032L174.718 60.688C175.081 61.6053 175.603 62.288 176.286 62.736C176.969 63.1627 177.705 63.376 178.494 63.376C179.39 63.376 180.094 63.1947 180.606 62.832C181.118 62.4693 181.374 62.064 181.374 61.616C181.374 61.168 181.182 60.784 180.798 60.464C180.414 60.1227 179.689 59.824 178.622 59.568L176.382 59.024C175.891 58.9173 175.39 58.7573 174.878 58.544C174.387 58.3093 173.929 58.0213 173.502 57.68C173.075 57.3173 172.723 56.8907 172.446 56.4C172.19 55.888 172.062 55.2907 172.062 54.608C172.062 53.84 172.222 53.1573 172.542 52.56C172.883 51.9627 173.342 51.4613 173.918 51.056C174.494 50.6507 175.155 50.3413 175.902 50.128C176.67 49.9147 177.481 49.808 178.334 49.808C179.038 49.808 179.71 49.8827 180.35 50.032C181.011 50.1813 181.619 50.4053 182.174 50.704C182.729 51.0027 183.219 51.3867 183.646 51.856C184.094 52.304 184.446 52.8373 184.702 53.456L181.566 54.768C181.267 54.0853 180.798 53.5947 180.158 53.296C179.518 52.976 178.867 52.816 178.206 52.816C177.907 52.816 177.598 52.8587 177.278 52.944C176.979 53.008 176.702 53.1147 176.446 53.264C176.211 53.392 176.009 53.5627 175.838 53.776C175.689 53.9893 175.614 54.224 175.614 54.48C175.614 54.9067 175.795 55.248 176.158 55.504C176.542 55.7387 177.118 55.952 177.886 56.144L180.286 56.752C181.907 57.1573 183.091 57.776 183.838 58.608C184.606 59.4187 184.99 60.3787 184.99 61.488C184.99 62.1707 184.83 62.8107 184.51 63.408C184.211 64.0053 183.774 64.5387 183.198 65.008C182.622 65.4773 181.929 65.84 181.118 66.096C180.329 66.3733 179.454 66.512 178.494 66.512ZM194.994 49.808C196.189 49.808 197.288 50.0213 198.29 50.448C199.293 50.8533 200.157 51.4293 200.882 52.176C201.608 52.9227 202.173 53.808 202.578 54.832C202.984 55.856 203.186 56.9653 203.186 58.16C203.186 59.3547 202.984 60.464 202.578 61.488C202.173 62.512 201.608 63.3973 200.882 64.144C200.157 64.8907 199.293 65.4773 198.29 65.904C197.288 66.3093 196.189 66.512 194.994 66.512C193.8 66.512 192.701 66.3093 191.698 65.904C190.696 65.4773 189.832 64.8907 189.106 64.144C188.381 63.3973 187.816 62.512 187.41 61.488C187.005 60.464 186.802 59.3547 186.802 58.16C186.802 56.9653 187.005 55.856 187.41 54.832C187.816 53.808 188.381 52.9227 189.106 52.176C189.832 51.4293 190.696 50.8533 191.698 50.448C192.701 50.0213 193.8 49.808 194.994 49.808ZM194.994 63.216C195.592 63.216 196.168 63.0987 196.722 62.864C197.277 62.6293 197.768 62.2987 198.194 61.872C198.642 61.4453 198.994 60.9227 199.25 60.304C199.506 59.664 199.634 58.9493 199.634 58.16C199.634 57.3707 199.506 56.6667 199.25 56.048C198.994 55.408 198.642 54.8747 198.194 54.448C197.768 54.0213 197.277 53.6907 196.722 53.456C196.168 53.2213 195.592 53.104 194.994 53.104C194.397 53.104 193.821 53.2213 193.266 53.456C192.712 53.6907 192.21 54.0213 191.762 54.448C191.336 54.8747 190.994 55.408 190.738 56.048C190.482 56.6667 190.354 57.3707 190.354 58.16C190.354 58.9493 190.482 59.664 190.738 60.304C190.994 60.9227 191.336 61.4453 191.762 61.872C192.21 62.2987 192.712 62.6293 193.266 62.864C193.821 63.0987 194.397 63.216 194.994 63.216ZM217.321 53.456H210.825V66H207.273V53.456H204.393V50.32H207.273V48.432C207.273 47.5573 207.412 46.7787 207.689 46.096C207.966 45.392 208.35 44.8053 208.841 44.336C209.353 43.8453 209.95 43.472 210.633 43.216C211.337 42.96 212.094 42.832 212.905 42.832C213.396 42.832 213.812 42.8747 214.153 42.96C214.516 43.024 214.836 43.1093 215.113 43.216L214.569 46.48C214.377 46.3947 214.164 46.3307 213.929 46.288C213.716 46.224 213.428 46.192 213.065 46.192C212.446 46.192 211.913 46.4053 211.465 46.832C211.038 47.2587 210.825 47.8773 210.825 48.688V50.32H217.321V45.52H220.873V50.32H224.745V53.456H220.873V60.432C220.873 60.816 220.916 61.168 221.001 61.488C221.086 61.808 221.214 62.0747 221.385 62.288C221.748 62.6933 222.206 62.896 222.761 62.896C223.102 62.896 223.369 62.8747 223.561 62.832C223.753 62.768 223.956 62.6827 224.169 62.576L225.257 65.712C224.809 65.8827 224.34 66.0107 223.849 66.096C223.358 66.2027 222.804 66.256 222.185 66.256C221.438 66.256 220.777 66.1387 220.201 65.904C219.625 65.6693 219.124 65.3493 218.697 64.944C217.78 64.0267 217.321 62.7787 217.321 61.2V53.456ZM241.025 66.512C240.107 66.512 239.211 66.3733 238.337 66.096C237.483 65.84 236.683 65.4453 235.937 64.912C235.211 64.3787 234.571 63.7173 234.017 62.928C233.462 62.1387 233.035 61.2213 232.737 60.176L236.193 58.768C236.342 59.3653 236.555 59.9307 236.833 60.464C237.131 60.976 237.483 61.424 237.889 61.808C238.315 62.192 238.785 62.5013 239.297 62.736C239.83 62.9493 240.417 63.056 241.057 63.056C241.59 63.056 242.102 62.992 242.593 62.864C243.083 62.7147 243.51 62.5013 243.873 62.224C244.235 61.9467 244.523 61.6053 244.737 61.2C244.971 60.7947 245.089 60.3253 245.089 59.792C245.089 59.3227 245.003 58.896 244.833 58.512C244.662 58.128 244.395 57.776 244.033 57.456C243.67 57.136 243.19 56.8373 242.593 56.56C241.995 56.2613 241.281 55.9627 240.449 55.664L239.009 55.152C238.39 54.9387 237.75 54.6613 237.089 54.32C236.449 53.9573 235.862 53.5307 235.329 53.04C234.817 52.528 234.39 51.9307 234.049 51.248C233.729 50.5653 233.569 49.7653 233.569 48.848C233.569 47.9947 233.739 47.1947 234.081 46.448C234.443 45.68 234.945 45.008 235.585 44.432C236.225 43.856 236.982 43.408 237.857 43.088C238.753 42.7467 239.734 42.576 240.801 42.576C241.91 42.576 242.881 42.736 243.713 43.056C244.566 43.3547 245.281 43.7387 245.857 44.208C246.433 44.6773 246.891 45.2 247.233 45.776C247.595 46.3307 247.862 46.8533 248.033 47.344L244.769 48.72C244.662 48.4 244.502 48.08 244.289 47.76C244.097 47.4187 243.841 47.12 243.521 46.864C243.201 46.608 242.817 46.3947 242.369 46.224C241.942 46.0533 241.441 45.968 240.865 45.968C240.353 45.968 239.873 46.0427 239.425 46.192C238.977 46.32 238.582 46.512 238.241 46.768C237.921 47.024 237.665 47.3227 237.473 47.664C237.281 48.0053 237.185 48.3787 237.185 48.784C237.185 49.5947 237.515 50.256 238.177 50.768C238.859 51.2587 239.851 51.728 241.153 52.176L242.593 52.688C243.489 52.9867 244.31 53.3387 245.057 53.744C245.803 54.1493 246.454 54.64 247.009 55.216C247.563 55.7707 247.99 56.4213 248.289 57.168C248.609 57.9147 248.769 58.7787 248.769 59.76C248.769 60.9547 248.523 61.9787 248.033 62.832C247.563 63.664 246.955 64.3573 246.209 64.912C245.462 65.4667 244.63 65.872 243.713 66.128C242.795 66.384 241.899 66.512 241.025 66.512ZM252.739 53.456H249.987V50.32H252.739V45.52H256.291V50.32H260.163V53.456H256.291V60.432C256.291 60.816 256.333 61.168 256.419 61.488C256.504 61.808 256.632 62.0747 256.803 62.288C257.165 62.6933 257.624 62.896 258.179 62.896C258.52 62.896 258.787 62.8747 258.979 62.832C259.171 62.768 259.373 62.6827 259.587 62.576L260.675 65.712C260.227 65.8827 259.757 66.0107 259.267 66.096C258.776 66.2027 258.221 66.256 257.603 66.256C256.856 66.256 256.195 66.1387 255.619 65.904C255.043 65.6693 254.541 65.3493 254.115 64.944C253.197 64.0267 252.739 62.7787 252.739 61.2V53.456ZM270.244 49.808C271.439 49.808 272.538 50.0213 273.54 50.448C274.543 50.8533 275.407 51.4293 276.132 52.176C276.858 52.9227 277.423 53.808 277.828 54.832C278.234 55.856 278.436 56.9653 278.436 58.16C278.436 59.3547 278.234 60.464 277.828 61.488C277.423 62.512 276.858 63.3973 276.132 64.144C275.407 64.8907 274.543 65.4773 273.54 65.904C272.538 66.3093 271.439 66.512 270.244 66.512C269.05 66.512 267.951 66.3093 266.948 65.904C265.946 65.4773 265.082 64.8907 264.356 64.144C263.631 63.3973 263.066 62.512 262.66 61.488C262.255 60.464 262.052 59.3547 262.052 58.16C262.052 56.9653 262.255 55.856 262.66 54.832C263.066 53.808 263.631 52.9227 264.356 52.176C265.082 51.4293 265.946 50.8533 266.948 50.448C267.951 50.0213 269.05 49.808 270.244 49.808ZM270.244 63.216C270.842 63.216 271.418 63.0987 271.972 62.864C272.527 62.6293 273.018 62.2987 273.444 61.872C273.892 61.4453 274.244 60.9227 274.5 60.304C274.756 59.664 274.884 58.9493 274.884 58.16C274.884 57.3707 274.756 56.6667 274.5 56.048C274.244 55.408 273.892 54.8747 273.444 54.448C273.018 54.0213 272.527 53.6907 271.972 53.456C271.418 53.2213 270.842 53.104 270.244 53.104C269.647 53.104 269.071 53.2213 268.516 53.456C267.962 53.6907 267.46 54.0213 267.012 54.448C266.586 54.8747 266.244 55.408 265.988 56.048C265.732 56.6667 265.604 57.3707 265.604 58.16C265.604 58.9493 265.732 59.664 265.988 60.304C266.244 60.9227 266.586 61.4453 267.012 61.872C267.46 62.2987 267.962 62.6293 268.516 62.864C269.071 63.0987 269.647 63.216 270.244 63.216ZM280.823 50.32H284.183V52.688H284.375C284.567 52.2827 284.823 51.9093 285.143 51.568C285.485 51.2053 285.858 50.9067 286.263 50.672C286.69 50.416 287.127 50.224 287.575 50.096C288.045 49.9467 288.493 49.872 288.919 49.872C289.431 49.872 289.869 49.9147 290.231 50C290.594 50.0853 290.925 50.2027 291.223 50.352L290.199 53.648C289.965 53.5413 289.698 53.4667 289.399 53.424C289.122 53.36 288.781 53.328 288.375 53.328C287.799 53.328 287.266 53.4453 286.775 53.68C286.306 53.9147 285.89 54.2347 285.527 54.64C285.165 55.0453 284.877 55.5253 284.663 56.08C284.471 56.6347 284.375 57.2213 284.375 57.84V66H280.823V50.32ZM306.695 62.256C306.034 63.472 305.095 64.4853 303.879 65.296C302.663 66.1067 301.17 66.512 299.399 66.512C298.226 66.512 297.138 66.3093 296.135 65.904C295.154 65.4773 294.3 64.8907 293.575 64.144C292.85 63.3973 292.284 62.5227 291.879 61.52C291.474 60.496 291.271 59.376 291.271 58.16C291.271 57.0293 291.463 55.9627 291.847 54.96C292.231 53.936 292.764 53.0507 293.447 52.304C294.151 51.536 294.994 50.928 295.975 50.48C296.956 50.032 298.044 49.808 299.239 49.808C300.455 49.808 301.532 50.0107 302.471 50.416C303.431 50.8213 304.242 51.3867 304.903 52.112C305.564 52.8373 306.066 53.712 306.407 54.736C306.77 55.76 306.951 56.88 306.951 58.096C306.951 58.2027 306.951 58.2987 306.951 58.384C306.93 58.4907 306.919 58.5867 306.919 58.672C306.898 58.7573 306.887 58.8427 306.887 58.928H294.823C294.887 59.6747 295.068 60.3253 295.367 60.88C295.666 61.4347 296.028 61.8933 296.455 62.256C296.903 62.6187 297.394 62.8853 297.927 63.056C298.46 63.2267 298.983 63.312 299.495 63.312C300.519 63.312 301.362 63.0667 302.023 62.576C302.684 62.0853 303.228 61.4773 303.655 60.752L306.695 62.256ZM303.399 56.208C303.356 55.888 303.25 55.536 303.079 55.152C302.93 54.7467 302.684 54.384 302.343 54.064C302.023 53.7227 301.596 53.4347 301.063 53.2C300.551 52.9653 299.922 52.848 299.175 52.848C298.151 52.848 297.266 53.1573 296.519 53.776C295.794 54.3733 295.303 55.184 295.047 56.208H303.399Z" fill="white"/>
<defs>
<clipPath id="clip0_1_658">
<rect width="50" height="50" fill="white" transform="translate(24 20)"/>
</clipPath>
</defs>
</svg>
